<svg class="t-sociallinks__svg" version="1.1" id="Layer_1" xmlns="http://www.w3.org/2000/svg" xmlns:xlink="http://www.w3.org/1999/xlink" x="0px" y="0px" width="30px" height="30px" viewBox="0 0 48 48" enable-background="new -455 257 48 48" xml:space="preserve"><desc>SoundCloud</desc><path style="fill:#fff;" d="M1.6 24.3c-.2 0-.3.1-.3.3l-.5 6.2.5 6c0 .2.2.3.3.3.2 0 .3-.1.3-.3l.6-6-.6-6.2c0-.2-.1-.3-.3-.3zM4.9 36.9zM4.9 25.1c0-.2-.2-.4-.4-.4s-.4.2-.4.4l-.5 5.8.5 6.1c0 .2.2.4.4.4s.4-.2.4-.4l.5-6.1-.5-5.8zM7.6 18.9c-.3 0-.5.2-.5.5l-.4 11.5.4 6c0 .3.2.5.5.5s.5-.2.5-.5l.5-6-.5-11.6c-.1-.2-.3-.4-.5-.4zM11.4 17.9c0-.3-.3-.6-.6-.6s-.6.3-.6.6l-.4 13 .4 5.9c0 .3.3.6.6.6s.6-.3.6-.6l.4-5.9-.4-13zM14.1 18c-.4 0-.7.3-.7.7l-.3 12.2.3 5.9c0 .4.3.7.7.7.4 0 .7-.3.7-.7l.3-5.9-.3-12.2c0-.4-.3-.7-.7-.7zM17.8 14.4c-.1-.1-.3-.1-.4-.1-.2 0-.4.1-.5.2-.2.1-.3.4-.3.6v.1l-.3 15.7.2 2.9.2 2.8c0 .4.4.8.8.8s.8-.3.8-.8l.3-5.7-.3-15.8c-.1-.3-.3-.5-.5-.7zM40.2 23.4c-1 0-1.9.2-2.7.5-.6-6.3-5.9-11.3-12.3-11.3-1.6 0-3.1.3-4.5.8-.5.2-.7.4-.7.8v22.2c0 .4.3.8.8.8h19.4c3.9 0 7-3.1 7-7 0-3.7-3.1-6.8-7-6.8z"></path></svg>