<?xml version="1.0" encoding="iso-8859-1"?>
<!-- Generator: Adobe Illustrator 19.0.0, SVG Export Plug-In . SVG Version: 6.00 Build 0)  -->
<svg version="1.1" id="Capa_1" xmlns="http://www.w3.org/2000/svg" xmlns:xlink="http://www.w3.org/1999/xlink" x="0px" y="0px"
	 viewBox="0 0 512 512" style="enable-background:new 0 0 512 512;" xml:space="preserve">
<g>
	<g>
		<path d="M375.958,301.474c-8.021-2.065-16.2,2.764-18.265,10.788C345.761,358.622,303.943,391,256,391
			s-89.761-32.378-101.693-78.739c-2.064-8.023-10.243-12.853-18.265-10.788c-8.023,2.065-12.853,10.243-10.788,18.265
			C140.599,379.36,194.364,421,256,421s115.401-41.64,130.746-101.261C388.811,311.716,383.981,303.539,375.958,301.474z"/>
	</g>
</g>
<g>
	<g>
		<path d="M256,0C115.03,0,0,115.05,0,256c0,140.97,115.05,256,256,256c140.97,0,256-115.05,256-256C512,115.03,396.95,0,256,0z
			 M256,482C131.383,482,30,380.617,30,256S131.383,30,256,30s226,101.383,226,226S380.617,482,256,482z"/>
	</g>
</g>
<g>
	<g>
		<path d="M382.709,212.584L349.541,196l33.167-16.583c7.41-3.706,10.413-12.715,6.709-20.125
			c-3.705-7.41-12.716-10.415-20.125-6.708l-60,30c-11.048,5.524-11.023,21.322,0,26.833l60,30
			c7.414,3.707,16.422,0.697,20.125-6.708C393.122,225.299,390.118,216.29,382.709,212.584z"/>
	</g>
</g>
<g>
	<g>
		<path d="M166,151c-24.813,0-45,20.187-45,45s20.187,45,45,45s45-20.187,45-45S190.813,151,166,151z M166,211
			c-8.271,0-15-6.729-15-15s6.729-15,15-15s15,6.729,15,15S174.271,211,166,211z"/>
	</g>
</g>
<g>
</g>
<g>
</g>
<g>
</g>
<g>
</g>
<g>
</g>
<g>
</g>
<g>
</g>
<g>
</g>
<g>
</g>
<g>
</g>
<g>
</g>
<g>
</g>
<g>
</g>
<g>
</g>
<g>
</g>
</svg>
